REM DIRINDEX 1\2\4\8,1\2\4\9,1\2\4\10,1\2\5\11,1\2\5\12,1\2\5\13,1\2\5\14,1\2\5\15,1\3\6\16,1\3\6\17,1\3\6\18,1\3\7\19,1\3\7\20,1\3\7\21,1\3\7\22,1\3\7\23
REM DIRNAME "folder01","folder02","folder03","folder04","folder05","folder06","folder07","folder08","folder09","folder10","folder11","folder12","folder13","folder14","folder15","folder16","folder17","folder18","folder19","folder20","folder21","folder22","folder23"
TITLE ""
FILE "LR_black_phrase_07.mp3" MP3
  TRACK 01 AUDIO
    TITLE "0:"
    INDEX 01 00:00:00
  TRACK 02 AUDIO
    TITLE "11:cjc171_06001"
    INDEX 01 00:00:18
  TRACK 03 AUDIO
    TITLE "0:"
    INDEX 01 00:01:45
  TRACK 04 AUDIO
    TITLE "12:cjc171_06002"
    INDEX 01 00:02:09
  TRACK 05 AUDIO
    TITLE "0:"
    INDEX 01 00:04:41
  TRACK 06 AUDIO
    TITLE "13:cjc171_06003"
    INDEX 01 00:05:39
  TRACK 07 AUDIO
    TITLE "0:"
    INDEX 01 00:07:55
  TRACK 08 AUDIO
    TITLE "14:cjc171_06004"
    INDEX 01 00:08:20
  TRACK 09 AUDIO
    TITLE "0:"
    INDEX 01 00:10:42
  TRACK 10 AUDIO
    TITLE "15:cjc171_06005"
    INDEX 01 00:10:71
  TRACK 11 AUDIO
    TITLE "0:"
    INDEX 01 00:13:19
  TRACK 12 AUDIO
    TITLE "11:cjc171_06006"
    INDEX 01 00:14:24
  TRACK 13 AUDIO
    TITLE "0:"
    INDEX 01 00:15:51
  TRACK 14 AUDIO
    TITLE "12:cjc171_06007"
    INDEX 01 00:16:15
  TRACK 15 AUDIO
    TITLE "0:"
    INDEX 01 00:20:01
  TRACK 16 AUDIO
    TITLE "13:cjc171_06008"
    INDEX 01 00:21:01
  TRACK 17 AUDIO
    TITLE "0:"
    INDEX 01 00:23:62
  TRACK 18 AUDIO
    TITLE "14:cjc171_06009"
    INDEX 01 00:24:30
  TRACK 19 AUDIO
    TITLE "0:"
    INDEX 01 00:26:72
  TRACK 20 AUDIO
    TITLE "15:cjc171_06010"
    INDEX 01 00:27:27
  TRACK 21 AUDIO
    TITLE "0:"
    INDEX 01 00:29:71
  TRACK 22 AUDIO
    TITLE "11:cjc171_06011"
    INDEX 01 00:31:01
  TRACK 23 AUDIO
    TITLE "0:"
    INDEX 01 00:32:42
  TRACK 24 AUDIO
    TITLE "12:cjc171_06012"
    INDEX 01 00:33:08
  TRACK 25 AUDIO
    TITLE "0:"
    INDEX 01 00:35:50
  TRACK 26 AUDIO
    TITLE "13:cjc171_06013"
    INDEX 01 00:36:49
  TRACK 27 AUDIO
    TITLE "0:"
    INDEX 01 00:38:25
  TRACK 28 AUDIO
    TITLE "14:cjc171_06014"
    INDEX 01 00:38:64
  TRACK 29 AUDIO
    TITLE "0:"
    INDEX 01 00:41:05
  TRACK 30 AUDIO
    TITLE "15:cjc171_06015"
    INDEX 01 00:41:35
  TRACK 31 AUDIO
    TITLE "0:"
    INDEX 01 00:43:51
  TRACK 32 AUDIO
    TITLE "11:cjc171_06016"
    INDEX 01 00:44:55
  TRACK 33 AUDIO
    TITLE "0:"
    INDEX 01 00:46:08
  TRACK 34 AUDIO
    TITLE "12:cjc171_06017"
    INDEX 01 00:46:48
  TRACK 35 AUDIO
    TITLE "0:"
    INDEX 01 00:50:16
  TRACK 36 AUDIO
    TITLE "13:cjc171_06018"
    INDEX 01 00:51:16
  TRACK 37 AUDIO
    TITLE "0:"
    INDEX 01 00:53:73
  TRACK 38 AUDIO
    TITLE "14:cjc171_06019"
    INDEX 01 00:54:37
  TRACK 39 AUDIO
    TITLE "0:"
    INDEX 01 00:57:22
  TRACK 40 AUDIO
    TITLE "15:cjc171_06020"
    INDEX 01 00:57:53
  TRACK 41 AUDIO
    TITLE "0:"
    INDEX 01 01:00:38
  TRACK 42 AUDIO
    TITLE "11:cjc171_06021"
    INDEX 01 01:01:41
  TRACK 43 AUDIO
    TITLE "0:"
    INDEX 01 01:02:41
  TRACK 44 AUDIO
    TITLE "12:cjc171_06022"
    INDEX 01 01:03:05
  TRACK 45 AUDIO
    TITLE "0:"
    INDEX 01 01:04:18
  TRACK 46 AUDIO
    TITLE "13:cjc171_06023"
    INDEX 01 01:05:14
  TRACK 47 AUDIO
    TITLE "0:"
    INDEX 01 01:07:22
  TRACK 48 AUDIO
    TITLE "14:cjc171_06024"
    INDEX 01 01:07:64
  TRACK 49 AUDIO
    TITLE "0:"
    INDEX 01 01:10:07
  TRACK 50 AUDIO
    TITLE "15:cjc171_06025"
    INDEX 01 01:10:38
  TRACK 51 AUDIO
    TITLE "0:"
    INDEX 01 01:12:57
  TRACK 52 AUDIO
    TITLE "11:cjc171_06026"
    INDEX 01 01:13:62
  TRACK 53 AUDIO
    TITLE "0:"
    INDEX 01 01:15:18
  TRACK 54 AUDIO
    TITLE "12:cjc171_06027"
    INDEX 01 01:15:57
  TRACK 55 AUDIO
    TITLE "0:"
    INDEX 01 01:16:72
  TRACK 56 AUDIO
    TITLE "13:cjc171_06028"
    INDEX 01 01:17:72
  TRACK 57 AUDIO
    TITLE "0:"
    INDEX 01 01:19:51
  TRACK 58 AUDIO
    TITLE "14:cjc171_06029"
    INDEX 01 01:20:17
  TRACK 59 AUDIO
    TITLE "0:"
    INDEX 01 01:22:45
  TRACK 60 AUDIO
    TITLE "15:cjc171_06030"
    INDEX 01 01:23:06
  TRACK 61 AUDIO
    TITLE "0:"
    INDEX 01 01:25:34
  TRACK 62 AUDIO
    TITLE "11:cjc171_06031"
    INDEX 01 01:26:39
  TRACK 63 AUDIO
    TITLE "0:"
    INDEX 01 01:28:01
  TRACK 64 AUDIO
    TITLE "12:cjc171_06032"
    INDEX 01 01:28:38
  TRACK 65 AUDIO
    TITLE "0:"
    INDEX 01 01:31:15
  TRACK 66 AUDIO
    TITLE "13:cjc171_06033"
    INDEX 01 01:32:14
  TRACK 67 AUDIO
    TITLE "0:"
    INDEX 01 01:34:19
  TRACK 68 AUDIO
    TITLE "14:cjc171_06034"
    INDEX 01 01:34:58
  TRACK 69 AUDIO
    TITLE "0:"
    INDEX 01 01:36:65
  TRACK 70 AUDIO
    TITLE "15:cjc171_06035"
    INDEX 01 01:37:23
  TRACK 71 AUDIO
    TITLE "0:"
    INDEX 01 01:39:30
  TRACK 72 AUDIO
    TITLE "11:cjc171_06036"
    INDEX 01 01:40:39
  TRACK 73 AUDIO
    TITLE "0:"
    INDEX 01 01:41:55
  TRACK 74 AUDIO
    TITLE "12:cjc171_06037"
    INDEX 01 01:42:19
  TRACK 75 AUDIO
    TITLE "0:"
    INDEX 01 01:45:09
  TRACK 76 AUDIO
    TITLE "13:cjc171_06038"
    INDEX 01 01:46:09
  TRACK 77 AUDIO
    TITLE "0:"
    INDEX 01 01:48:23
  TRACK 78 AUDIO
    TITLE "14:cjc171_06039"
    INDEX 01 01:48:64
  TRACK 79 AUDIO
    TITLE "0:"
    INDEX 01 01:50:55
  TRACK 80 AUDIO
    TITLE "15:cjc171_06040"
    INDEX 01 01:51:06
  TRACK 81 AUDIO
    TITLE "0:"
    INDEX 01 01:52:72
  TRACK 82 AUDIO
    TITLE "11:cjc171_06041"
    INDEX 01 01:54:00
  TRACK 83 AUDIO
    TITLE "0:"
    INDEX 01 01:55:37
  TRACK 84 AUDIO
    TITLE "12:cjc171_06042"
    INDEX 01 01:56:03
  TRACK 85 AUDIO
    TITLE "0:"
    INDEX 01 01:58:35
  TRACK 86 AUDIO
    TITLE "13:cjc171_06043"
    INDEX 01 01:59:35
  TRACK 87 AUDIO
    TITLE "0:"
    INDEX 01 02:02:49
  TRACK 88 AUDIO
    TITLE "14:cjc171_06044"
    INDEX 01 02:03:15
  TRACK 89 AUDIO
    TITLE "0:"
    INDEX 01 02:06:11
  TRACK 90 AUDIO
    TITLE "15:cjc171_06045"
    INDEX 01 02:06:39
  TRACK 91 AUDIO
    TITLE "0:"
    INDEX 01 02:09:35
  TRACK 92 AUDIO
    TITLE "11:cjc171_06046"
    INDEX 01 02:10:41
  TRACK 93 AUDIO
    TITLE "0:"
    INDEX 01 02:11:67
  TRACK 94 AUDIO
    TITLE "12:cjc171_06047"
    INDEX 01 02:12:30
  TRACK 95 AUDIO
    TITLE "0:"
    INDEX 01 02:15:03
  TRACK 96 AUDIO
    TITLE "13:cjc171_06048"
    INDEX 01 02:16:02
  TRACK 97 AUDIO
    TITLE "0:"
    INDEX 01 02:18:13
  TRACK 98 AUDIO
    TITLE "14:cjc171_06049"
    INDEX 01 02:18:52
  TRACK 99 AUDIO
    TITLE "0:"
    INDEX 01 02:20:62
  TRACK 100 AUDIO
    TITLE "15:cjc171_06050"
    INDEX 01 02:21:17
  TRACK 101 AUDIO
    TITLE "0:"
    INDEX 01 02:23:28
  TRACK 102 AUDIO
    TITLE "11:cjc171_06051"
    INDEX 01 02:24:27
  TRACK 103 AUDIO
    TITLE "0:"
    INDEX 01 02:25:48
  TRACK 104 AUDIO
    TITLE "12:cjc171_06052"
    INDEX 01 02:26:06
  TRACK 105 AUDIO
    TITLE "0:"
    INDEX 01 02:29:40
  TRACK 106 AUDIO
    TITLE "13:cjc171_06053"
    INDEX 01 02:30:37
  TRACK 107 AUDIO
    TITLE "0:"
    INDEX 01 02:33:06
  TRACK 108 AUDIO
    TITLE "14:cjc171_06054"
    INDEX 01 02:33:40
  TRACK 109 AUDIO
    TITLE "0:"
    INDEX 01 02:36:14
  TRACK 110 AUDIO
    TITLE "15:cjc171_06055"
    INDEX 01 02:36:36
  TRACK 111 AUDIO
    TITLE "0:"
    INDEX 01 02:39:15
  TRACK 112 AUDIO
    TITLE "11:cjc171_06056"
    INDEX 01 02:40:08
  TRACK 113 AUDIO
    TITLE "0:"
    INDEX 01 02:41:23
  TRACK 114 AUDIO
    TITLE "12:cjc171_06057"
    INDEX 01 02:41:57
  TRACK 115 AUDIO
    TITLE "0:"
    INDEX 01 02:44:53
  TRACK 116 AUDIO
    TITLE "13:cjc171_06058"
    INDEX 01 02:45:53
  TRACK 117 AUDIO
    TITLE "0:"
    INDEX 01 02:47:48
  TRACK 118 AUDIO
    TITLE "14:cjc171_06059"
    INDEX 01 02:48:04
  TRACK 119 AUDIO
    TITLE "0:"
    INDEX 01 02:50:56
  TRACK 120 AUDIO
    TITLE "15:cjc171_06060"
    INDEX 01 02:50:73
  TRACK 121 AUDIO
    TITLE "0:"
    INDEX 01 02:53:50
  TRACK 122 AUDIO
    TITLE "11:cjc171_06061"
    INDEX 01 02:54:44
  TRACK 123 AUDIO
    TITLE "0:"
    INDEX 01 02:56:05
  TRACK 124 AUDIO
    TITLE "12:cjc171_06062"
    INDEX 01 02:56:37
  TRACK 125 AUDIO
    TITLE "0:"
    INDEX 01 02:59:15
  TRACK 126 AUDIO
    TITLE "13:cjc171_06063"
    INDEX 01 03:00:15
  TRACK 127 AUDIO
    TITLE "0:"
    INDEX 01 03:02:65
  TRACK 128 AUDIO
    TITLE "14:cjc171_06064"
    INDEX 01 03:03:27
  TRACK 129 AUDIO
    TITLE "0:"
    INDEX 01 03:05:61
  TRACK 130 AUDIO
    TITLE "15:cjc171_06065"
    INDEX 01 03:06:04
  TRACK 131 AUDIO
    TITLE "0:"
    INDEX 01 03:08:40
  TRACK 132 AUDIO
    TITLE "11:cjc171_06066"
    INDEX 01 03:09:33
  TRACK 133 AUDIO
    TITLE "0:"
    INDEX 01 03:10:54
  TRACK 134 AUDIO
    TITLE "12:cjc171_06067"
    INDEX 01 03:11:15
  TRACK 135 AUDIO
    TITLE "0:"
    INDEX 01 03:14:25
  TRACK 136 AUDIO
    TITLE "13:cjc171_06068"
    INDEX 01 03:15:24
  TRACK 137 AUDIO
    TITLE "0:"
    INDEX 01 03:17:53
  TRACK 138 AUDIO
    TITLE "14:cjc171_06069"
    INDEX 01 03:18:11
  TRACK 139 AUDIO
    TITLE "0:"
    INDEX 01 03:20:35
  TRACK 140 AUDIO
    TITLE "15:cjc171_06070"
    INDEX 01 03:20:55
  TRACK 141 AUDIO
    TITLE "0:"
    INDEX 01 03:23:02
  TRACK 142 AUDIO
    TITLE "11:cjc171_06071"
    INDEX 01 03:23:73
  TRACK 143 AUDIO
    TITLE "0:"
    INDEX 01 03:25:05
  TRACK 144 AUDIO
    TITLE "12:cjc171_06072"
    INDEX 01 03:25:38
  TRACK 145 AUDIO
    TITLE "0:"
    INDEX 01 03:28:01
  TRACK 146 AUDIO
    TITLE "13:cjc171_06073"
    INDEX 01 03:29:03
  TRACK 147 AUDIO
    TITLE "0:"
    INDEX 01 03:31:31
  TRACK 148 AUDIO
    TITLE "14:cjc171_06074"
    INDEX 01 03:31:64
  TRACK 149 AUDIO
    TITLE "0:"
    INDEX 01 03:33:71
  TRACK 150 AUDIO
    TITLE "15:cjc171_06075"
    INDEX 01 03:34:14
  TRACK 151 AUDIO
    TITLE "0:"
    INDEX 01 03:36:24
  TRACK 152 AUDIO
    TITLE "11:cjc171_06076"
    INDEX 01 03:37:14
  TRACK 153 AUDIO
    TITLE "0:"
    INDEX 01 03:38:39
  TRACK 154 AUDIO
    TITLE "12:cjc171_06077"
    INDEX 01 03:38:74
  TRACK 155 AUDIO
    TITLE "0:"
    INDEX 01 03:40:22
  TRACK 156 AUDIO
    TITLE "13:cjc171_06078"
    INDEX 01 03:41:20
  TRACK 157 AUDIO
    TITLE "0:"
    INDEX 01 03:43:54
  TRACK 158 AUDIO
    TITLE "14:cjc171_06079"
    INDEX 01 03:44:12
  TRACK 159 AUDIO
    TITLE "0:"
    INDEX 01 03:46:13
  TRACK 160 AUDIO
    TITLE "15:cjc171_06080"
    INDEX 01 03:46:33
  TRACK 161 AUDIO
    TITLE "0:"
    INDEX 01 03:48:34
  TRACK 162 AUDIO
    TITLE "11:cjc171_06081"
    INDEX 01 03:49:27
  TRACK 163 AUDIO
    TITLE "0:"
    INDEX 01 03:50:44
  TRACK 164 AUDIO
    TITLE "12:cjc171_06082"
    INDEX 01 03:51:06
  TRACK 165 AUDIO
    TITLE "0:"
    INDEX 01 03:53:72
  TRACK 166 AUDIO
    TITLE "13:cjc171_06083"
    INDEX 01 03:54:69
  TRACK 167 AUDIO
    TITLE "0:"
    INDEX 01 03:58:63
  TRACK 168 AUDIO
    TITLE "14:cjc171_06084"
    INDEX 01 03:59:28
  TRACK 169 AUDIO
    TITLE "0:"
    INDEX 01 04:02:73
  TRACK 170 AUDIO
    TITLE "15:cjc171_06085"
    INDEX 01 04:03:19
  TRACK 171 AUDIO
    TITLE "0:"
    INDEX 01 04:06:71
  TRACK 172 AUDIO
    TITLE "11:cjc171_06086"
    INDEX 01 04:07:66
  TRACK 173 AUDIO
    TITLE "0:"
    INDEX 01 04:09:12
  TRACK 174 AUDIO
    TITLE "12:cjc171_06087"
    INDEX 01 04:09:47
  TRACK 175 AUDIO
    TITLE "0:"
    INDEX 01 04:12:34
  TRACK 176 AUDIO
    TITLE "13:cjc171_06088"
    INDEX 01 04:13:33
  TRACK 177 AUDIO
    TITLE "0:"
    INDEX 01 04:15:15
  TRACK 178 AUDIO
    TITLE "14:cjc171_06089"
    INDEX 01 04:15:48
  TRACK 179 AUDIO
    TITLE "0:"
    INDEX 01 04:17:27
  TRACK 180 AUDIO
    TITLE "15:cjc171_06090"
    INDEX 01 04:17:53
  TRACK 181 AUDIO
    TITLE "0:"
    INDEX 01 04:19:32
  TRACK 182 AUDIO
    TITLE "11:cjc171_06091"
    INDEX 01 04:20:37
  TRACK 183 AUDIO
    TITLE "0:"
    INDEX 01 04:21:74
  TRACK 184 AUDIO
    TITLE "12:cjc171_06092"
    INDEX 01 04:22:34
  TRACK 185 AUDIO
    TITLE "0:"
    INDEX 01 04:23:46
  TRACK 186 AUDIO
    TITLE "13:cjc171_06093"
    INDEX 01 04:24:47
  TRACK 187 AUDIO
    TITLE "0:"
    INDEX 01 04:26:28
  TRACK 188 AUDIO
    TITLE "14:cjc171_06094"
    INDEX 01 04:26:66
  TRACK 189 AUDIO
    TITLE "0:"
    INDEX 01 04:29:15
  TRACK 190 AUDIO
    TITLE "15:cjc171_06095"
    INDEX 01 04:29:40
  TRACK 191 AUDIO
    TITLE "0:"
    INDEX 01 04:31:63
  TRACK 192 AUDIO
    TITLE "11:cjc171_06096"
    INDEX 01 04:32:60
  TRACK 193 AUDIO
    TITLE "0:"
    INDEX 01 04:34:02
  TRACK 194 AUDIO
    TITLE "12:cjc171_06097"
    INDEX 01 04:34:40
  TRACK 195 AUDIO
    TITLE "0:"
    INDEX 01 04:36:38
  TRACK 196 AUDIO
    TITLE "13:cjc171_06098"
    INDEX 01 04:37:40
  TRACK 197 AUDIO
    TITLE "0:"
    INDEX 01 04:39:29
  TRACK 198 AUDIO
    TITLE "14:cjc171_06099"
    INDEX 01 04:39:64
  TRACK 199 AUDIO
    TITLE "0:"
    INDEX 01 04:42:19
  TRACK 200 AUDIO
    TITLE "15:cjc171_06100"
    INDEX 01 04:42:41
  TRACK 201 AUDIO
    TITLE "0:"
    INDEX 01 04:44:71
  TRACK 202 AUDIO
    TITLE "11:cjc171_06101"
    INDEX 01 04:45:73
  TRACK 203 AUDIO
    TITLE "0:"
    INDEX 01 04:47:05
  TRACK 204 AUDIO
    TITLE "12:cjc171_06102"
    INDEX 01 04:47:44
  TRACK 205 AUDIO
    TITLE "0:"
    INDEX 01 04:50:17
  TRACK 206 AUDIO
    TITLE "13:cjc171_06103"
    INDEX 01 04:51:18
  TRACK 207 AUDIO
    TITLE "0:"
    INDEX 01 04:53:35
  TRACK 208 AUDIO
    TITLE "14:cjc171_06104"
    INDEX 01 04:53:74
  TRACK 209 AUDIO
    TITLE "0:"
    INDEX 01 04:56:00
  TRACK 210 AUDIO
    TITLE "15:cjc171_06105"
    INDEX 01 04:56:27
  TRACK 211 AUDIO
    TITLE "0:"
    INDEX 01 04:58:26
  TRACK 212 AUDIO
    TITLE "11:cjc171_06106"
    INDEX 01 04:59:30
  TRACK 213 AUDIO
    TITLE "0:"
    INDEX 01 05:00:55
  TRACK 214 AUDIO
    TITLE "12:cjc171_06107"
    INDEX 01 05:01:21
  TRACK 215 AUDIO
    TITLE "0:"
    INDEX 01 05:04:74
  TRACK 216 AUDIO
    TITLE "13:cjc171_06108"
    INDEX 01 05:05:71
  TRACK 217 AUDIO
    TITLE "0:"
    INDEX 01 05:07:55
  TRACK 218 AUDIO
    TITLE "14:cjc171_06109"
    INDEX 01 05:08:17
  TRACK 219 AUDIO
    TITLE "0:"
    INDEX 01 05:10:24
  TRACK 220 AUDIO
    TITLE "15:cjc171_06110"
    INDEX 01 05:10:51
  TRACK 221 AUDIO
    TITLE "0:"
    INDEX 01 05:12:58
  TRACK 222 AUDIO
    TITLE "11:cjc171_06111"
    INDEX 01 05:13:63
  TRACK 223 AUDIO
    TITLE "0:"
    INDEX 01 05:15:17
  TRACK 224 AUDIO
    TITLE "12:cjc171_06112"
    INDEX 01 05:15:58
  TRACK 225 AUDIO
    TITLE "0:"
    INDEX 01 05:17:12
  TRACK 226 AUDIO
    TITLE "13:cjc171_06113"
    INDEX 01 05:18:11
  TRACK 227 AUDIO
    TITLE "0:"
    INDEX 01 05:20:10
  TRACK 228 AUDIO
    TITLE "14:cjc171_06114"
    INDEX 01 05:20:49
  TRACK 229 AUDIO
    TITLE "0:"
    INDEX 01 05:22:50
  TRACK 230 AUDIO
    TITLE "15:cjc171_06115"
    INDEX 01 05:23:05
  TRACK 231 AUDIO
    TITLE "0:"
    INDEX 01 05:25:06
  TRACK 232 AUDIO
    TITLE "11:cjc171_06116"
    INDEX 01 05:26:09
  TRACK 233 AUDIO
    TITLE "0:"
    INDEX 01 05:27:22
  TRACK 234 AUDIO
    TITLE "12:cjc171_06117"
    INDEX 01 05:27:61
  TRACK 235 AUDIO
    TITLE "0:"
    INDEX 01 05:29:74
  TRACK 236 AUDIO
    TITLE "13:cjc171_06118"
    INDEX 01 05:30:73
  TRACK 237 AUDIO
    TITLE "0:"
    INDEX 01 05:32:43
  TRACK 238 AUDIO
    TITLE "14:cjc171_06119"
    INDEX 01 05:33:07
  TRACK 239 AUDIO
    TITLE "0:"
    INDEX 01 05:34:67
  TRACK 240 AUDIO
    TITLE "15:cjc171_06120"
    INDEX 01 05:35:26
  TRACK 241 AUDIO
    TITLE "0:"
    INDEX 01 05:37:13
  TRACK 242 AUDIO
    TITLE "11:cjc171_06121"
    INDEX 01 05:38:20
  TRACK 243 AUDIO
    TITLE "0:"
    INDEX 01 05:39:29
  TRACK 244 AUDIO
    TITLE "12:cjc171_06122"
    INDEX 01 05:39:70
  TRACK 245 AUDIO
    TITLE "0:"
    INDEX 01 05:41:18
  TRACK 246 AUDIO
    TITLE "13:cjc171_06123"
    INDEX 01 05:42:18
  TRACK 247 AUDIO
    TITLE "0:"
    INDEX 01 05:44:58
  TRACK 248 AUDIO
    TITLE "14:cjc171_06124"
    INDEX 01 05:45:22
  TRACK 249 AUDIO
    TITLE "0:"
    INDEX 01 05:47:70
  TRACK 250 AUDIO
    TITLE "15:cjc171_06125"
    INDEX 01 05:48:22
  TRACK 251 AUDIO
    TITLE "0:"
    INDEX 01 05:50:70
  TRACK 252 AUDIO
    TITLE "11:cjc171_06126"
    INDEX 01 05:51:72
  TRACK 253 AUDIO
    TITLE "0:"
    INDEX 01 05:53:16
  TRACK 254 AUDIO
    TITLE "12:cjc171_06127"
    INDEX 01 05:53:55
  TRACK 255 AUDIO
    TITLE "0:"
    INDEX 01 05:56:18
  TRACK 256 AUDIO
    TITLE "13:cjc171_06128"
    INDEX 01 05:57:17
  TRACK 257 AUDIO
    TITLE "0:"
    INDEX 01 05:59:01
  TRACK 258 AUDIO
    TITLE "14:cjc171_06129"
    INDEX 01 05:59:40
  TRACK 259 AUDIO
    TITLE "0:"
    INDEX 01 06:01:56
  TRACK 260 AUDIO
    TITLE "15:cjc171_06130"
    INDEX 01 06:02:09
  TRACK 261 AUDIO
    TITLE "0:"
    INDEX 01 06:04:25
  TRACK 262 AUDIO
    TITLE "11:cjc171_06131"
    INDEX 01 06:05:31
  TRACK 263 AUDIO
    TITLE "0:"
    INDEX 01 06:06:54
  TRACK 264 AUDIO
    TITLE "12:cjc171_06132"
    INDEX 01 06:07:18
  TRACK 265 AUDIO
    TITLE "0:"
    INDEX 01 06:08:17
  TRACK 266 AUDIO
    TITLE "13:cjc171_06133"
    INDEX 01 06:09:17
  TRACK 267 AUDIO
    TITLE "0:"
    INDEX 01 06:11:66
  TRACK 268 AUDIO
    TITLE "14:cjc171_06134"
    INDEX 01 06:12:37
  TRACK 269 AUDIO
    TITLE "0:"
    INDEX 01 06:15:39
  TRACK 270 AUDIO
    TITLE "15:cjc171_06135"
    INDEX 01 06:15:64
  TRACK 271 AUDIO
    TITLE "0:"
    INDEX 01 06:18:68
  TRACK 272 AUDIO
    TITLE "11:cjc171_06136"
    INDEX 01 06:19:70
  TRACK 273 AUDIO
    TITLE "0:"
    INDEX 01 06:21:18
  TRACK 274 AUDIO
    TITLE "12:cjc171_06137"
    INDEX 01 06:21:55
  TRACK 275 AUDIO
    TITLE "0:"
    INDEX 01 06:24:08
  TRACK 276 AUDIO
    TITLE "13:cjc171_06138"
    INDEX 01 06:25:08
  TRACK 277 AUDIO
    TITLE "0:"
    INDEX 01 06:26:70
  TRACK 278 AUDIO
    TITLE "14:cjc171_06139"
    INDEX 01 06:27:34
  TRACK 279 AUDIO
    TITLE "0:"
    INDEX 01 06:29:15
  TRACK 280 AUDIO
    TITLE "15:cjc171_06140"
    INDEX 01 06:29:45
  TRACK 281 AUDIO
    TITLE "0:"
    INDEX 01 06:31:26
  TRACK 282 AUDIO
    TITLE "11:cjc171_06141"
    INDEX 01 06:32:31
  TRACK 283 AUDIO
    TITLE "0:"
    INDEX 01 06:33:48
  TRACK 284 AUDIO
    TITLE "12:cjc171_06142"
    INDEX 01 06:34:13
  TRACK 285 AUDIO
    TITLE "0:"
    INDEX 01 06:36:43
  TRACK 286 AUDIO
    TITLE "13:cjc171_06143"
    INDEX 01 06:37:40
  TRACK 287 AUDIO
    TITLE "0:"
    INDEX 01 06:40:07
  TRACK 288 AUDIO
    TITLE "14:cjc171_06144"
    INDEX 01 06:40:48
  TRACK 289 AUDIO
    TITLE "0:"
    INDEX 01 06:43:47
  TRACK 290 AUDIO
    TITLE "15:cjc171_06145"
    INDEX 01 06:44:01
  TRACK 291 AUDIO
    TITLE "0:"
    INDEX 01 06:47:00
  TRACK 292 AUDIO
    TITLE "11:cjc171_06146"
    INDEX 01 06:48:07
  TRACK 293 AUDIO
    TITLE "0:"
    INDEX 01 06:49:26
  TRACK 294 AUDIO
    TITLE "12:cjc171_06147"
    INDEX 01 06:49:67
  TRACK 295 AUDIO
    TITLE "0:"
    INDEX 01 06:51:19
  TRACK 296 AUDIO
    TITLE "13:cjc171_06148"
    INDEX 01 06:52:16
  TRACK 297 AUDIO
    TITLE "0:"
    INDEX 01 06:54:43
  TRACK 298 AUDIO
    TITLE "14:cjc171_06149"
    INDEX 01 06:55:07
  TRACK 299 AUDIO
    TITLE "0:"
    INDEX 01 06:57:55
  TRACK 300 AUDIO
    TITLE "15:cjc171_06150"
    INDEX 01 06:58:17
  TRACK 301 AUDIO
    TITLE "0:"
    INDEX 01 07:00:63
  TRACK 302 AUDIO
    TITLE "11:cjc171_06151"
    INDEX 01 07:01:64
  TRACK 303 AUDIO
    TITLE "0:"
    INDEX 01 07:03:03
  TRACK 304 AUDIO
    TITLE "12:cjc171_06152"
    INDEX 01 07:03:44
  TRACK 305 AUDIO
    TITLE "0:"
    INDEX 01 07:06:34
  TRACK 306 AUDIO
    TITLE "13:cjc171_06153"
    INDEX 01 07:07:36
  TRACK 307 AUDIO
    TITLE "0:"
    INDEX 01 07:09:70
  TRACK 308 AUDIO
    TITLE "14:cjc171_06154"
    INDEX 01 07:10:30
  TRACK 309 AUDIO
    TITLE "0:"
    INDEX 01 07:12:64
  TRACK 310 AUDIO
    TITLE "15:cjc171_06155"
    INDEX 01 07:13:13
  TRACK 311 AUDIO
    TITLE "0:"
    INDEX 01 07:15:47
  TRACK 312 AUDIO
    TITLE "11:cjc171_06156"
    INDEX 01 07:16:44
  TRACK 313 AUDIO
    TITLE "0:"
    INDEX 01 07:17:59
  TRACK 314 AUDIO
    TITLE "12:cjc171_06157"
    INDEX 01 07:18:22
  TRACK 315 AUDIO
    TITLE "0:"
    INDEX 01 07:19:52
  TRACK 316 AUDIO
    TITLE "13:cjc171_06158"
    INDEX 01 07:20:54
  TRACK 317 AUDIO
    TITLE "0:"
    INDEX 01 07:22:43
  TRACK 318 AUDIO
    TITLE "14:cjc171_06159"
    INDEX 01 07:23:01
  TRACK 319 AUDIO
    TITLE "0:"
    INDEX 01 07:24:60
  TRACK 320 AUDIO
    TITLE "15:cjc171_06160"
    INDEX 01 07:25:08
  TRACK 321 AUDIO
    TITLE "0:"
    INDEX 01 07:26:60
  TRACK 322 AUDIO
    TITLE "11:cjc171_06161"
    INDEX 01 07:27:54
  TRACK 323 AUDIO
    TITLE "0:"
    INDEX 01 07:29:02
  TRACK 324 AUDIO
    TITLE "12:cjc171_06162"
    INDEX 01 07:29:39
  TRACK 325 AUDIO
    TITLE "0:"
    INDEX 01 07:31:32
  TRACK 326 AUDIO
    TITLE "13:cjc171_06163"
    INDEX 01 07:32:28
  TRACK 327 AUDIO
    TITLE "0:"
    INDEX 01 07:34:70
  TRACK 328 AUDIO
    TITLE "14:cjc171_06164"
    INDEX 01 07:35:30
  TRACK 329 AUDIO
    TITLE "0:"
    INDEX 01 07:37:50
  TRACK 330 AUDIO
    TITLE "15:cjc171_06165"
    INDEX 01 07:37:70
  TRACK 331 AUDIO
    TITLE "0:"
    INDEX 01 07:40:15
  TRACK 332 AUDIO
    TITLE "11:cjc171_06166"
    INDEX 01 07:41:11
  TRACK 333 AUDIO
    TITLE "0:"
    INDEX 01 07:42:32
  TRACK 334 AUDIO
    TITLE "12:cjc171_06167"
    INDEX 01 07:42:69
  TRACK 335 AUDIO
    TITLE "0:"
    INDEX 01 07:44:29
  TRACK 336 AUDIO
    TITLE "13:cjc171_06168"
    INDEX 01 07:45:26
  TRACK 337 AUDIO
    TITLE "0:"
    INDEX 01 07:47:19
  TRACK 338 AUDIO
    TITLE "14:cjc171_06169"
    INDEX 01 07:47:53
  TRACK 339 AUDIO
    TITLE "0:"
    INDEX 01 07:49:65
  TRACK 340 AUDIO
    TITLE "15:cjc171_06170"
    INDEX 01 07:50:10
  TRACK 341 AUDIO
    TITLE "0:"
    INDEX 01 07:52:24
  TRACK 342 AUDIO
    TITLE "11:cjc171_06171"
    INDEX 01 07:53:18
  TRACK 343 AUDIO
    TITLE "0:"
    INDEX 01 07:54:43
  TRACK 344 AUDIO
    TITLE "12:cjc171_06172"
    INDEX 01 07:55:01
  TRACK 345 AUDIO
    TITLE "0:"
    INDEX 01 07:56:30
  TRACK 346 AUDIO
    TITLE "13:cjc171_06173"
    INDEX 01 07:57:30
  TRACK 347 AUDIO
    TITLE "0:"
    INDEX 01 07:59:34
  TRACK 348 AUDIO
    TITLE "14:cjc171_06174"
    INDEX 01 07:59:70
  TRACK 349 AUDIO
    TITLE "0:"
    INDEX 01 08:02:11
  TRACK 350 AUDIO
    TITLE "15:cjc171_06175"
    INDEX 01 08:02:35
  TRACK 351 AUDIO
    TITLE "0:"
    INDEX 01 08:04:51
  TRACK 352 AUDIO
    TITLE "11:cjc171_06176"
    INDEX 01 08:05:51
  TRACK 353 AUDIO
    TITLE "0:"
    INDEX 01 08:07:04
  TRACK 354 AUDIO
    TITLE "12:cjc171_06177"
    INDEX 01 08:07:44
  TRACK 355 AUDIO
    TITLE "0:"
    INDEX 01 08:08:59
  TRACK 356 AUDIO
    TITLE "13:cjc171_06178"
    INDEX 01 08:09:62
  TRACK 357 AUDIO
    TITLE "0:"
    INDEX 01 08:11:34
  TRACK 358 AUDIO
    TITLE "14:cjc171_06179"
    INDEX 01 08:11:67
  TRACK 359 AUDIO
    TITLE "0:"
    INDEX 01 08:14:01
  TRACK 360 AUDIO
    TITLE "15:cjc171_06180"
    INDEX 01 08:14:24
  TRACK 361 AUDIO
    TITLE "0:"
    INDEX 01 08:16:33
  TRACK 362 AUDIO
    TITLE "11:cjc171_06181"
    INDEX 01 08:17:32
  TRACK 363 AUDIO
    TITLE "0:"
    INDEX 01 08:18:55
  TRACK 364 AUDIO
    TITLE "12:cjc171_06182"
    INDEX 01 08:19:15
  TRACK 365 AUDIO
    TITLE "0:"
    INDEX 01 08:20:62
  TRACK 366 AUDIO
    TITLE "13:cjc171_06183"
    INDEX 01 08:21:61
  TRACK 367 AUDIO
    TITLE "0:"
    INDEX 01 08:24:34
  TRACK 368 AUDIO
    TITLE "14:cjc171_06184"
    INDEX 01 08:24:73
  TRACK 369 AUDIO
    TITLE "0:"
    INDEX 01 08:27:33
  TRACK 370 AUDIO
    TITLE "15:cjc171_06185"
    INDEX 01 08:27:56
  TRACK 371 AUDIO
    TITLE "0:"
    INDEX 01 08:30:15
  TRACK 372 AUDIO
    TITLE "11:cjc171_06186"
    INDEX 01 08:31:09
  TRACK 373 AUDIO
    TITLE "0:"
    INDEX 01 08:32:12
  TRACK 374 AUDIO
    TITLE "12:cjc171_06187"
    INDEX 01 08:32:48
  TRACK 375 AUDIO
    TITLE "0:"
    INDEX 01 08:33:59
  TRACK 376 AUDIO
    TITLE "13:cjc171_06188"
    INDEX 01 08:34:60
  TRACK 377 AUDIO
    TITLE "0:"
    INDEX 01 08:37:15
  TRACK 378 AUDIO
    TITLE "14:cjc171_06189"
    INDEX 01 08:37:55
  TRACK 379 AUDIO
    TITLE "0:"
    INDEX 01 08:39:36
  TRACK 380 AUDIO
    TITLE "15:cjc171_06190"
    INDEX 01 08:39:67
  TRACK 381 AUDIO
    TITLE "0:"
    INDEX 01 08:41:50
  TRACK 382 AUDIO
    TITLE "11:cjc171_06191"
    INDEX 01 08:42:54
  TRACK 383 AUDIO
    TITLE "0:"
    INDEX 01 08:44:12
  TRACK 384 AUDIO
    TITLE "12:cjc171_06192"
    INDEX 01 08:44:51
  TRACK 385 AUDIO
    TITLE "0:"
    INDEX 01 08:46:20
  TRACK 386 AUDIO
    TITLE "13:cjc171_06193"
    INDEX 01 08:47:20
  TRACK 387 AUDIO
    TITLE "0:"
    INDEX 01 08:49:17
  TRACK 388 AUDIO
    TITLE "14:cjc171_06194"
    INDEX 01 08:49:50
  TRACK 389 AUDIO
    TITLE "0:"
    INDEX 01 08:51:49
  TRACK 390 AUDIO
    TITLE "15:cjc171_06195"
    INDEX 01 08:51:70
  TRACK 391 AUDIO
    TITLE "0:"
    INDEX 01 08:53:67
  TRACK 392 AUDIO
    TITLE "11:cjc171_06196"
    INDEX 01 08:54:71
  TRACK 393 AUDIO
    TITLE "0:"
    INDEX 01 08:56:19
  TRACK 394 AUDIO
    TITLE "12:cjc171_06197"
    INDEX 01 08:56:52
  TRACK 395 AUDIO
    TITLE "0:"
    INDEX 01 09:00:24
  TRACK 396 AUDIO
    TITLE "13:cjc171_06198"
    INDEX 01 09:01:24
  TRACK 397 AUDIO
    TITLE "0:"
    INDEX 01 09:03:25
  TRACK 398 AUDIO
    TITLE "14:cjc171_06199"
    INDEX 01 09:03:60
  TRACK 399 AUDIO
    TITLE "0:"
    INDEX 01 09:05:65
  TRACK 400 AUDIO
    TITLE "15:cjc171_06200"
    INDEX 01 09:06:09
  TRACK 401 AUDIO
    TITLE "0:"
    INDEX 01 09:08:14
  TRACK 402 AUDIO
    TITLE "11:cjc171_06201"
    INDEX 01 09:09:15
  TRACK 403 AUDIO
    TITLE "0:"
    INDEX 01 09:10:46
  TRACK 404 AUDIO
    TITLE "12:cjc171_06202"
    INDEX 01 09:11:03
  TRACK 405 AUDIO
    TITLE "0:"
    INDEX 01 09:16:43
  TRACK 406 AUDIO
    TITLE "13:cjc171_06203"
    INDEX 01 09:17:44
  TRACK 407 AUDIO
    TITLE "0:"
    INDEX 01 09:19:06
  TRACK 408 AUDIO
    TITLE "14:cjc171_06204"
    INDEX 01 09:19:35
  TRACK 409 AUDIO
    TITLE "0:"
    INDEX 01 09:21:07
  TRACK 410 AUDIO
    TITLE "15:cjc171_06205"
    INDEX 01 09:21:28
  TRACK 411 AUDIO
    TITLE "0:"
    INDEX 01 09:23:00
  TRACK 412 AUDIO
    TITLE "11:cjc171_06206"
    INDEX 01 09:24:07
  TRACK 413 AUDIO
    TITLE "0:"
    INDEX 01 09:25:36
  TRACK 414 AUDIO
    TITLE "12:cjc171_06207"
    INDEX 01 09:26:02
  TRACK 415 AUDIO
    TITLE "0:"
    INDEX 01 09:28:28
  TRACK 416 AUDIO
    TITLE "13:cjc171_06208"
    INDEX 01 09:29:32
  TRACK 417 AUDIO
    TITLE "0:"
    INDEX 01 09:31:39
  TRACK 418 AUDIO
    TITLE "14:cjc171_06209"
    INDEX 01 09:32:03
  TRACK 419 AUDIO
    TITLE "0:"
    INDEX 01 09:34:29
  TRACK 420 AUDIO
    TITLE "15:cjc171_06210"
    INDEX 01 09:34:60
  TRACK 421 AUDIO
    TITLE "0:"
    INDEX 01 09:37:12
  TRACK 422 AUDIO
    TITLE "11:cjc171_06211"
    INDEX 01 09:38:17
  TRACK 423 AUDIO
    TITLE "0:"
    INDEX 01 09:39:36
  TRACK 424 AUDIO
    TITLE "12:cjc171_06212"
    INDEX 01 09:40:00
  TRACK 425 AUDIO
    TITLE "0:"
    INDEX 01 09:41:04
  TRACK 426 AUDIO
    TITLE "13:cjc171_06213"
    INDEX 01 09:42:01
  TRACK 427 AUDIO
    TITLE "0:"
    INDEX 01 09:44:41
  TRACK 428 AUDIO
    TITLE "14:cjc171_06214"
    INDEX 01 09:45:05
  TRACK 429 AUDIO
    TITLE "0:"
    INDEX 01 09:47:22
  TRACK 430 AUDIO
    TITLE "15:cjc171_06215"
    INDEX 01 09:47:51
  TRACK 431 AUDIO
    TITLE "0:"
    INDEX 01 09:49:70
  TRACK 432 AUDIO
    TITLE "11:cjc171_06216"
    INDEX 01 09:51:00
  TRACK 433 AUDIO
    TITLE "0:"
    INDEX 01 09:52:11
  TRACK 434 AUDIO
    TITLE "12:cjc171_06217"
    INDEX 01 09:52:50
  TRACK 435 AUDIO
    TITLE "0:"
    INDEX 01 09:53:69
  TRACK 436 AUDIO
    TITLE "13:cjc171_06218"
    INDEX 01 09:54:69
  TRACK 437 AUDIO
    TITLE "0:"
    INDEX 01 09:57:48
  TRACK 438 AUDIO
    TITLE "14:cjc171_06219"
    INDEX 01 09:58:12
  TRACK 439 AUDIO
    TITLE "0:"
    INDEX 01 10:00:05
  TRACK 440 AUDIO
    TITLE "15:cjc171_06220"
    INDEX 01 10:00:34
  TRACK 441 AUDIO
    TITLE "0:"
    INDEX 01 10:02:29
  TRACK 442 AUDIO
    TITLE "11:cjc171_06221"
    INDEX 01 10:03:33
  TRACK 443 AUDIO
    TITLE "0:"
    INDEX 01 10:04:65
  TRACK 444 AUDIO
    TITLE "12:cjc171_06222"
    INDEX 01 10:05:30
  TRACK 445 AUDIO
    TITLE "0:"
    INDEX 01 10:07:07
  TRACK 446 AUDIO
    TITLE "13:cjc171_06223"
    INDEX 01 10:08:06
  TRACK 447 AUDIO
    TITLE "0:"
    INDEX 01 10:11:26
  TRACK 448 AUDIO
    TITLE "14:cjc171_06224"
    INDEX 01 10:11:64
  TRACK 449 AUDIO
    TITLE "0:"
    INDEX 01 10:14:32
  TRACK 450 AUDIO
    TITLE "15:cjc171_06225"
    INDEX 01 10:14:62
  TRACK 451 AUDIO
    TITLE "0:"
    INDEX 01 10:17:29
  TRACK 452 AUDIO
    TITLE "11:cjc171_06226"
    INDEX 01 10:18:34
  TRACK 453 AUDIO
    TITLE "0:"
    INDEX 01 10:19:51
  TRACK 454 AUDIO
    TITLE "12:cjc171_06227"
    INDEX 01 10:20:13
  TRACK 455 AUDIO
    TITLE "0:"
    INDEX 01 10:23:12
  TRACK 456 AUDIO
    TITLE "13:cjc171_06228"
    INDEX 01 10:24:09
  TRACK 457 AUDIO
    TITLE "0:"
    INDEX 01 10:26:57
  TRACK 458 AUDIO
    TITLE "14:cjc171_06229"
    INDEX 01 10:27:19
  TRACK 459 AUDIO
    TITLE "0:"
    INDEX 01 10:29:32
  TRACK 460 AUDIO
    TITLE "15:cjc171_06230"
    INDEX 01 10:29:61
  TRACK 461 AUDIO
    TITLE "0:"
    INDEX 01 10:32:01
  TRACK 462 AUDIO
    TITLE "11:cjc171_06231"
    INDEX 01 10:33:04
  TRACK 463 AUDIO
    TITLE "0:"
    INDEX 01 10:34:43
  TRACK 464 AUDIO
    TITLE "12:cjc171_06232"
    INDEX 01 10:35:07
  TRACK 465 AUDIO
    TITLE "0:"
    INDEX 01 10:36:30
  TRACK 466 AUDIO
    TITLE "13:cjc171_06233"
    INDEX 01 10:37:28
  TRACK 467 AUDIO
    TITLE "0:"
    INDEX 01 10:39:52
  TRACK 468 AUDIO
    TITLE "14:cjc171_06234"
    INDEX 01 10:40:14
  TRACK 469 AUDIO
    TITLE "0:"
    INDEX 01 10:42:41
  TRACK 470 AUDIO
    TITLE "15:cjc171_06235"
    INDEX 01 10:42:70
  TRACK 471 AUDIO
    TITLE "0:"
    INDEX 01 10:45:21
  TRACK 472 AUDIO
    TITLE "11:cjc171_06236"
    INDEX 01 10:46:25
  TRACK 473 AUDIO
    TITLE "0:"
    INDEX 01 10:47:48
  TRACK 474 AUDIO
    TITLE "12:cjc171_06237"
    INDEX 01 10:48:12
  TRACK 475 AUDIO
    TITLE "0:"
    INDEX 01 10:50:48
  TRACK 476 AUDIO
    TITLE "13:cjc171_06238"
    INDEX 01 10:51:49
  TRACK 477 AUDIO
    TITLE "0:"
    INDEX 01 10:53:38
  TRACK 478 AUDIO
    TITLE "14:cjc171_06239"
    INDEX 01 10:54:03
  TRACK 479 AUDIO
    TITLE "0:"
    INDEX 01 10:56:01
  TRACK 480 AUDIO
    TITLE "15:cjc171_06240"
    INDEX 01 10:56:33
  TRACK 481 AUDIO
    TITLE "0:"
    INDEX 01 10:58:32
  TRACK 482 AUDIO
    TITLE "11:cjc171_06241"
    INDEX 01 10:59:37
  TRACK 483 AUDIO
    TITLE "0:"
    INDEX 01 11:01:05
  TRACK 484 AUDIO
    TITLE "12:cjc171_06242"
    INDEX 01 11:01:44
  TRACK 485 AUDIO
    TITLE "0:"
    INDEX 01 11:02:69
  TRACK 486 AUDIO
    TITLE "13:cjc171_06243"
    INDEX 01 11:03:66
  TRACK 487 AUDIO
    TITLE "0:"
    INDEX 01 11:06:10
  TRACK 488 AUDIO
    TITLE "14:cjc171_06244"
    INDEX 01 11:06:53
  TRACK 489 AUDIO
    TITLE "0:"
    INDEX 01 11:09:02
  TRACK 490 AUDIO
    TITLE "15:cjc171_06245"
    INDEX 01 11:09:34
  TRACK 491 AUDIO
    TITLE "0:"
    INDEX 01 11:11:60
  TRACK 492 AUDIO
    TITLE "11:cjc171_06246"
    INDEX 01 11:12:65
  TRACK 493 AUDIO
    TITLE "0:"
    INDEX 01 11:14:07
  TRACK 494 AUDIO
    TITLE "12:cjc171_06247"
    INDEX 01 11:14:48
  TRACK 495 AUDIO
    TITLE "0:"
    INDEX 01 11:17:25
  TRACK 496 AUDIO
    TITLE "13:cjc171_06248"
    INDEX 01 11:18:21
  TRACK 497 AUDIO
    TITLE "0:"
    INDEX 01 11:20:06
  TRACK 498 AUDIO
    TITLE "14:cjc171_06249"
    INDEX 01 11:20:47
  TRACK 499 AUDIO
    TITLE "0:"
    INDEX 01 11:22:26
  TRACK 500 AUDIO
    TITLE "15:cjc171_06250"
    INDEX 01 11:22:60
  TRACK 501 AUDIO
    TITLE "0:"
    INDEX 01 11:24:43
  TRACK 502 AUDIO
    TITLE "11:cjc171_06251"
    INDEX 01 11:25:48
  TRACK 503 AUDIO
    TITLE "0:"
    INDEX 01 11:26:63
  TRACK 504 AUDIO
    TITLE "12:cjc171_06252"
    INDEX 01 11:27:28
  TRACK 505 AUDIO
    TITLE "0:"
    INDEX 01 11:29:17
  TRACK 506 AUDIO
    TITLE "13:cjc171_06253"
    INDEX 01 11:30:20
  TRACK 507 AUDIO
    TITLE "0:"
    INDEX 01 11:32:05
  TRACK 508 AUDIO
    TITLE "14:cjc171_06254"
    INDEX 01 11:32:40
  TRACK 509 AUDIO
    TITLE "0:"
    INDEX 01 11:34:45
  TRACK 510 AUDIO
    TITLE "15:cjc171_06255"
    INDEX 01 11:34:67
  TRACK 511 AUDIO
    TITLE "0:"
    INDEX 01 11:36:73
  TRACK 512 AUDIO
    TITLE "11:cjc171_06256"
    INDEX 01 11:37:73
  TRACK 513 AUDIO
    TITLE "0:"
    INDEX 01 11:39:19
  TRACK 514 AUDIO
    TITLE "12:cjc171_06257"
    INDEX 01 11:39:54
  TRACK 515 AUDIO
    TITLE "0:"
    INDEX 01 11:42:19
  TRACK 516 AUDIO
    TITLE "13:cjc171_06258"
    INDEX 01 11:43:21
  TRACK 517 AUDIO
    TITLE "0:"
    INDEX 01 11:45:49
  TRACK 518 AUDIO
    TITLE "14:cjc171_06259"
    INDEX 01 11:46:07
  TRACK 519 AUDIO
    TITLE "0:"
    INDEX 01 11:48:59
  TRACK 520 AUDIO
    TITLE "15:cjc171_06260"
    INDEX 01 11:49:04
  TRACK 521 AUDIO
    TITLE "0:"
    INDEX 01 11:51:57
  TRACK 522 AUDIO
    TITLE "11:cjc171_06261"
    INDEX 01 11:52:53
  TRACK 523 AUDIO
    TITLE "0:"
    INDEX 01 11:53:74
  TRACK 524 AUDIO
    TITLE "12:cjc171_06262"
    INDEX 01 11:54:36
  TRACK 525 AUDIO
    TITLE "0:"
    INDEX 01 11:56:19
  TRACK 526 AUDIO
    TITLE "13:cjc171_06263"
    INDEX 01 11:57:21
  TRACK 527 AUDIO
    TITLE "0:"
    INDEX 01 11:59:06
  TRACK 528 AUDIO
    TITLE "14:cjc171_06264"
    INDEX 01 11:59:37
  TRACK 529 AUDIO
    TITLE "0:"
    INDEX 01 12:01:66
  TRACK 530 AUDIO
    TITLE "15:cjc171_06265"
    INDEX 01 12:02:16
  TRACK 531 AUDIO
    TITLE "0:"
    INDEX 01 12:04:46
  TRACK 532 AUDIO
    TITLE "11:cjc171_06266"
    INDEX 01 12:05:48
  TRACK 533 AUDIO
    TITLE "0:"
    INDEX 01 12:06:69
  TRACK 534 AUDIO
    TITLE "12:cjc171_06267"
    INDEX 01 12:07:27
  TRACK 535 AUDIO
    TITLE "0:"
    INDEX 01 12:08:32
  TRACK 536 AUDIO
    TITLE "13:cjc171_06268"
    INDEX 01 12:09:32
  TRACK 537 AUDIO
    TITLE "0:"
    INDEX 01 12:11:17
  TRACK 538 AUDIO
    TITLE "14:cjc171_06269"
    INDEX 01 12:11:52
  TRACK 539 AUDIO
    TITLE "0:"
    INDEX 01 12:14:13
  TRACK 540 AUDIO
    TITLE "15:cjc171_06270"
    INDEX 01 12:14:33
  TRACK 541 AUDIO
    TITLE "0:"
    INDEX 01 12:16:67
  TRACK 542 AUDIO
    TITLE "11:cjc171_06271"
    INDEX 01 12:17:65
  TRACK 543 AUDIO
    TITLE "0:"
    INDEX 01 12:19:09
  TRACK 544 AUDIO
    TITLE "12:cjc171_06272"
    INDEX 01 12:19:46
  TRACK 545 AUDIO
    TITLE "0:"
    INDEX 01 12:22:38
  TRACK 546 AUDIO
    TITLE "13:cjc171_06273"
    INDEX 01 12:23:38
  TRACK 547 AUDIO
    TITLE "0:"
    INDEX 01 12:25:43
  TRACK 548 AUDIO
    TITLE "14:cjc171_06274"
    INDEX 01 12:26:01
  TRACK 549 AUDIO
    TITLE "0:"
    INDEX 01 12:28:12
  TRACK 550 AUDIO
    TITLE "15:cjc171_06275"
    INDEX 01 12:28:33
  TRACK 551 AUDIO
    TITLE "0:"
    INDEX 01 12:30:46
  TRACK 552 AUDIO
    TITLE "11:cjc171_06276"
    INDEX 01 12:31:41
  TRACK 553 AUDIO
    TITLE "0:"
    INDEX 01 12:33:01
  TRACK 554 AUDIO
    TITLE "12:cjc171_06277"
    INDEX 01 12:33:34
  TRACK 555 AUDIO
    TITLE "0:"
    INDEX 01 12:37:12
  TRACK 556 AUDIO
    TITLE "13:cjc171_06278"
    INDEX 01 12:38:16
  TRACK 557 AUDIO
    TITLE "0:"
    INDEX 01 12:40:19
  TRACK 558 AUDIO
    TITLE "14:cjc171_06279"
    INDEX 01 12:40:56
  TRACK 559 AUDIO
    TITLE "0:"
    INDEX 01 12:42:55
  TRACK 560 AUDIO
    TITLE "15:cjc171_06280"
    INDEX 01 12:43:01
  TRACK 561 AUDIO
    TITLE "0:"
    INDEX 01 12:44:73
  TRACK 562 AUDIO
    TITLE "11:cjc171_06281"
    INDEX 01 12:45:69
  TRACK 563 AUDIO
    TITLE "0:"
    INDEX 01 12:47:03
  TRACK 564 AUDIO
    TITLE "12:cjc171_06282"
    INDEX 01 12:47:34
  TRACK 565 AUDIO
    TITLE "0:"
    INDEX 01 12:50:66
  TRACK 566 AUDIO
    TITLE "13:cjc171_06283"
    INDEX 01 12:51:64
  TRACK 567 AUDIO
    TITLE "0:"
    INDEX 01 12:54:62
  TRACK 568 AUDIO
    TITLE "14:cjc171_06284"
    INDEX 01 12:55:16
  TRACK 569 AUDIO
    TITLE "0:"
    INDEX 01 12:58:24
  TRACK 570 AUDIO
    TITLE "15:cjc171_06285"
    INDEX 01 12:58:38
  TRACK 571 AUDIO
    TITLE "0:"
    INDEX 01 13:01:48
  TRACK 572 AUDIO
    TITLE "11:cjc171_06286"
    INDEX 01 13:02:40
  TRACK 573 AUDIO
    TITLE "0:"
    INDEX 01 13:03:61
  TRACK 574 AUDIO
    TITLE "12:cjc171_06287"
    INDEX 01 13:04:23
  TRACK 575 AUDIO
    TITLE "0:"
    INDEX 01 13:08:07
  TRACK 576 AUDIO
    TITLE "13:cjc171_06288"
    INDEX 01 13:09:07
  TRACK 577 AUDIO
    TITLE "0:"
    INDEX 01 13:11:25
  TRACK 578 AUDIO
    TITLE "14:cjc171_06289"
    INDEX 01 13:11:56
  TRACK 579 AUDIO
    TITLE "0:"
    INDEX 01 13:14:35
  TRACK 580 AUDIO
    TITLE "15:cjc171_06290"
    INDEX 01 13:14:59
  TRACK 581 AUDIO
    TITLE "0:"
    INDEX 01 13:17:26
  TRACK 582 AUDIO
    TITLE "11:cjc171_06291"
    INDEX 01 13:18:43
  TRACK 583 AUDIO
    TITLE "0:"
    INDEX 01 13:19:62
  TRACK 584 AUDIO
    TITLE "12:cjc171_06292"
    INDEX 01 13:20:28
  TRACK 585 AUDIO
    TITLE "0:"
    INDEX 01 13:23:09
  TRACK 586 AUDIO
    TITLE "13:cjc171_06293"
    INDEX 01 13:24:10
  TRACK 587 AUDIO
    TITLE "0:"
    INDEX 01 13:26:38
  TRACK 588 AUDIO
    TITLE "14:cjc171_06294"
    INDEX 01 13:26:74
  TRACK 589 AUDIO
    TITLE "0:"
    INDEX 01 13:29:27
  TRACK 590 AUDIO
    TITLE "15:cjc171_06295"
    INDEX 01 13:29:48
  TRACK 591 AUDIO
    TITLE "0:"
    INDEX 01 13:32:00
  TRACK 592 AUDIO
    TITLE "11:cjc171_06296"
    INDEX 01 13:32:70
  TRACK 593 AUDIO
    TITLE "0:"
    INDEX 01 13:33:68
  TRACK 594 AUDIO
    TITLE "12:cjc171_06297"
    INDEX 01 13:34:26
  TRACK 595 AUDIO
    TITLE "0:"
    INDEX 01 13:35:45
  TRACK 596 AUDIO
    TITLE "13:cjc171_06298"
    INDEX 01 13:36:45
  TRACK 597 AUDIO
    TITLE "0:"
    INDEX 01 13:38:43
  TRACK 598 AUDIO
    TITLE "14:cjc171_06299"
    INDEX 01 13:39:02
  TRACK 599 AUDIO
    TITLE "0:"
    INDEX 01 13:40:64
  TRACK 600 AUDIO
    TITLE "15:cjc171_06300"
    INDEX 01 13:41:09
  TRACK 601 AUDIO
    TITLE "0:"
    INDEX 01 13:42:73
  TRACK 602 AUDIO
    TITLE "11:cjc171_06301"
    INDEX 01 13:43:72
  TRACK 603 AUDIO
    TITLE "0:"
    INDEX 01 13:45:14
  TRACK 604 AUDIO
    TITLE "12:cjc171_06302"
    INDEX 01 13:45:55
  TRACK 605 AUDIO
    TITLE "0:"
    INDEX 01 13:48:09
  TRACK 606 AUDIO
    TITLE "13:cjc171_06303"
    INDEX 01 13:49:06
  TRACK 607 AUDIO
    TITLE "0:"
    INDEX 01 13:51:11
  TRACK 608 AUDIO
    TITLE "14:cjc171_06304"
    INDEX 01 13:51:52
  TRACK 609 AUDIO
    TITLE "0:"
    INDEX 01 13:54:23
  TRACK 610 AUDIO
    TITLE "15:cjc171_06305"
    INDEX 01 13:54:52
  TRACK 611 AUDIO
    TITLE "0:"
    INDEX 01 13:57:25
  TRACK 612 AUDIO
    TITLE "11:cjc171_06306"
    INDEX 01 13:58:30
  TRACK 613 AUDIO
    TITLE "0:"
    INDEX 01 13:59:36
  TRACK 614 AUDIO
    TITLE "12:cjc171_06307"
    INDEX 01 14:00:02
  TRACK 615 AUDIO
    TITLE "0:"
    INDEX 01 14:01:72
  TRACK 616 AUDIO
    TITLE "13:cjc171_06308"
    INDEX 01 14:02:67
  TRACK 617 AUDIO
    TITLE "0:"
    INDEX 01 14:05:33
  TRACK 618 AUDIO
    TITLE "14:cjc171_06309"
    INDEX 01 14:05:70
  TRACK 619 AUDIO
    TITLE "0:"
    INDEX 01 14:07:63
  TRACK 620 AUDIO
    TITLE "15:cjc171_06310"
    INDEX 01 14:08:19
  TRACK 621 AUDIO
    TITLE "0:"
    INDEX 01 14:10:14
  TRACK 622 AUDIO
    TITLE "11:cjc171_06311"
    INDEX 01 14:11:19
  TRACK 623 AUDIO
    TITLE "0:"
    INDEX 01 14:12:50
  TRACK 624 AUDIO
    TITLE "12:cjc171_06312"
    INDEX 01 14:13:14
  TRACK 625 AUDIO
    TITLE "0:"
    INDEX 01 14:15:52
  TRACK 626 AUDIO
    TITLE "13:cjc171_06313"
    INDEX 01 14:16:52
  TRACK 627 AUDIO
    TITLE "0:"
    INDEX 01 14:18:14
  TRACK 628 AUDIO
    TITLE "14:cjc171_06314"
    INDEX 01 14:18:55
  TRACK 629 AUDIO
    TITLE "0:"
    INDEX 01 14:20:48
  TRACK 630 AUDIO
    TITLE "15:cjc171_06315"
    INDEX 01 14:21:02
  TRACK 631 AUDIO
    TITLE "0:"
    INDEX 01 14:22:70
  TRACK 632 AUDIO
    TITLE "11:cjc171_06316"
    INDEX 01 14:24:01
  TRACK 633 AUDIO
    TITLE "0:"
    INDEX 01 14:25:21
  TRACK 634 AUDIO
    TITLE "12:cjc171_06317"
    INDEX 01 14:25:63
  TRACK 635 AUDIO
    TITLE "0:"
    INDEX 01 14:27:64
  TRACK 636 AUDIO
    TITLE "13:cjc171_06318"
    INDEX 01 14:28:61
  TRACK 637 AUDIO
    TITLE "0:"
    INDEX 01 14:30:70
  TRACK 638 AUDIO
    TITLE "14:cjc171_06319"
    INDEX 01 14:31:34
  TRACK 639 AUDIO
    TITLE "0:"
    INDEX 01 14:33:54
  TRACK 640 AUDIO
    TITLE "15:cjc171_06320"
    INDEX 01 14:34:09
  TRACK 641 AUDIO
    TITLE "0:"
    INDEX 01 14:36:29
  TRACK 642 AUDIO
    TITLE "11:cjc171_06321"
    INDEX 01 14:37:34
  TRACK 643 AUDIO
    TITLE "0:"
    INDEX 01 14:38:55
  TRACK 644 AUDIO
    TITLE "12:cjc171_06322"
    INDEX 01 14:39:20
  TRACK 645 AUDIO
    TITLE "0:"
    INDEX 01 14:41:44
  TRACK 646 AUDIO
    TITLE "13:cjc171_06323"
    INDEX 01 14:42:43
  TRACK 647 AUDIO
    TITLE "0:"
    INDEX 01 14:43:66
  TRACK 648 AUDIO
    TITLE "14:cjc171_06324"
    INDEX 01 14:44:31
  TRACK 649 AUDIO
    TITLE "0:"
    INDEX 01 14:46:16
  TRACK 650 AUDIO
    TITLE "15:cjc171_06325"
    INDEX 01 14:46:45
  TRACK 651 AUDIO
    TITLE "0:"
    INDEX 01 14:48:30
  TRACK 652 AUDIO
    TITLE "11:cjc171_06326"
    INDEX 01 14:49:34
  TRACK 653 AUDIO
    TITLE "0:"
    INDEX 01 14:50:45
  TRACK 654 AUDIO
    TITLE "12:cjc171_06327"
    INDEX 01 14:51:09
  TRACK 655 AUDIO
    TITLE "0:"
    INDEX 01 14:52:16
  TRACK 656 AUDIO
    TITLE "13:cjc171_06328"
    INDEX 01 14:53:16
  TRACK 657 AUDIO
    TITLE "0:"
    INDEX 01 14:55:01
  TRACK 658 AUDIO
    TITLE "14:cjc171_06329"
    INDEX 01 14:55:42
  TRACK 659 AUDIO
    TITLE "0:"
    INDEX 01 14:57:35
  TRACK 660 AUDIO
    TITLE "15:cjc171_06330"
    INDEX 01 14:57:63
  TRACK 661 AUDIO
    TITLE "0:"
    INDEX 01 14:59:54
  TRACK 662 AUDIO
    TITLE "11:cjc171_06331"
    INDEX 01 15:00:57
  TRACK 663 AUDIO
    TITLE "0:"
    INDEX 01 15:02:03
  TRACK 664 AUDIO
    TITLE "12:cjc171_06332"
    INDEX 01 15:02:42
  TRACK 665 AUDIO
    TITLE "0:"
    INDEX 01 15:05:03
  TRACK 666 AUDIO
    TITLE "13:cjc171_06333"
    INDEX 01 15:05:74
  TRACK 667 AUDIO
    TITLE "0:"
    INDEX 01 15:07:59
  TRACK 668 AUDIO
    TITLE "14:cjc171_06334"
    INDEX 01 15:08:25
  TRACK 669 AUDIO
    TITLE "0:"
    INDEX 01 15:10:20
  TRACK 670 AUDIO
    TITLE "15:cjc171_06335"
    INDEX 01 15:10:50
  TRACK 671 AUDIO
    TITLE "0:"
    INDEX 01 15:12:48
  TRACK 672 AUDIO
    TITLE "11:cjc171_06336"
    INDEX 01 15:13:50
  TRACK 673 AUDIO
    TITLE "0:"
    INDEX 01 15:14:63
  TRACK 674 AUDIO
    TITLE "12:cjc171_06337"
    INDEX 01 15:15:25
  TRACK 675 AUDIO
    TITLE "0:"
    INDEX 01 15:16:42
  TRACK 676 AUDIO
    TITLE "13:cjc171_06338"
    INDEX 01 15:17:42
  TRACK 677 AUDIO
    TITLE "0:"
    INDEX 01 15:20:25
  TRACK 678 AUDIO
    TITLE "14:cjc171_06339"
    INDEX 01 15:20:64
  TRACK 679 AUDIO
    TITLE "0:"
    INDEX 01 15:22:72
  TRACK 680 AUDIO
    TITLE "15:cjc171_06340"
    INDEX 01 15:23:27
  TRACK 681 AUDIO
    TITLE "0:"
    INDEX 01 15:25:35
  TRACK 682 AUDIO
    TITLE "11:cjc171_06341"
    INDEX 01 15:26:33
  TRACK 683 AUDIO
    TITLE "0:"
    INDEX 01 15:27:46
  TRACK 684 AUDIO
    TITLE "12:cjc171_06342"
    INDEX 01 15:28:12
  TRACK 685 AUDIO
    TITLE "0:"
    INDEX 01 15:31:16
  TRACK 686 AUDIO
    TITLE "13:cjc171_06343"
    INDEX 01 15:32:16
  TRACK 687 AUDIO
    TITLE "0:"
    INDEX 01 15:34:64
  TRACK 688 AUDIO
    TITLE "14:cjc171_06344"
    INDEX 01 15:35:30
  TRACK 689 AUDIO
    TITLE "0:"
    INDEX 01 15:37:60
  TRACK 690 AUDIO
    TITLE "15:cjc171_06345"
    INDEX 01 15:38:17
  TRACK 691 AUDIO
    TITLE "0:"
    INDEX 01 15:40:49
  TRACK 692 AUDIO
    TITLE "11:cjc171_06346"
    INDEX 01 15:41:54
  TRACK 693 AUDIO
    TITLE "0:"
    INDEX 01 15:42:67
  TRACK 694 AUDIO
    TITLE "12:cjc171_06347"
    INDEX 01 15:43:33
  TRACK 695 AUDIO
    TITLE "0:"
    INDEX 01 15:46:00
  TRACK 696 AUDIO
    TITLE "13:cjc171_06348"
    INDEX 01 15:47:00
  TRACK 697 AUDIO
    TITLE "0:"
    INDEX 01 15:48:68
  TRACK 698 AUDIO
    TITLE "14:cjc171_06349"
    INDEX 01 15:49:32
  TRACK 699 AUDIO
    TITLE "0:"
    INDEX 01 15:51:19
  TRACK 700 AUDIO
    TITLE "15:cjc171_06350"
    INDEX 01 15:51:51
  TRACK 701 AUDIO
    TITLE "0:"
    INDEX 01 15:53:38
  TRACK 702 AUDIO
    TITLE "11:cjc171_06351"
    INDEX 01 15:54:41
  TRACK 703 AUDIO
    TITLE "0:"
    INDEX 01 15:55:72
  TRACK 704 AUDIO
    TITLE "12:cjc171_06352"
    INDEX 01 15:56:32
  TRACK 705 AUDIO
    TITLE "0:"
    INDEX 01 15:59:23
  TRACK 706 AUDIO
    TITLE "13:cjc171_06353"
    INDEX 01 16:00:22
  TRACK 707 AUDIO
    TITLE "0:"
    INDEX 01 16:02:66
  TRACK 708 AUDIO
    TITLE "14:cjc171_06354"
    INDEX 01 16:03:24
  TRACK 709 AUDIO
    TITLE "0:"
    INDEX 01 16:05:33
  TRACK 710 AUDIO
    TITLE "15:cjc171_06355"
    INDEX 01 16:05:53
  TRACK 711 AUDIO
    TITLE "0:"
    INDEX 01 16:07:61
  TRACK 712 AUDIO
    TITLE "11:cjc171_06356"
    INDEX 01 16:08:55
  TRACK 713 AUDIO
    TITLE "0:"
    INDEX 01 16:10:01
  TRACK 714 AUDIO
    TITLE "12:cjc171_06357"
    INDEX 01 16:10:42
  TRACK 715 AUDIO
    TITLE "0:"
    INDEX 01 16:12:23
  TRACK 716 AUDIO
    TITLE "13:cjc171_06358"
    INDEX 01 16:13:21
  TRACK 717 AUDIO
    TITLE "0:"
    INDEX 01 16:16:03
  TRACK 718 AUDIO
    TITLE "14:cjc171_06359"
    INDEX 01 16:16:37
  TRACK 719 AUDIO
    TITLE "0:"
    INDEX 01 16:18:49
  TRACK 720 AUDIO
    TITLE "15:cjc171_06360"
    INDEX 01 16:18:71
  TRACK 721 AUDIO
    TITLE "0:"
    INDEX 01 16:21:07
  TRACK 722 AUDIO
    TITLE "11:cjc171_06361"
    INDEX 01 16:22:02
  TRACK 723 AUDIO
    TITLE "0:"
    INDEX 01 16:23:35
  TRACK 724 AUDIO
    TITLE "12:cjc171_06362"
    INDEX 01 16:23:72
  TRACK 725 AUDIO
    TITLE "0:"
    INDEX 01 16:24:68
  TRACK 726 AUDIO
    TITLE "13:cjc171_06363"
    INDEX 01 16:25:67
  TRACK 727 AUDIO
    TITLE "0:"
    INDEX 01 16:27:64
  TRACK 728 AUDIO
    TITLE "14:cjc171_06364"
    INDEX 01 16:28:26
  TRACK 729 AUDIO
    TITLE "0:"
    INDEX 01 16:30:62
  TRACK 730 AUDIO
    TITLE "15:cjc171_06365"
    INDEX 01 16:31:13
  TRACK 731 AUDIO
    TITLE "0:"
    INDEX 01 16:33:51
  TRACK 732 AUDIO
    TITLE "11:cjc171_06366"
    INDEX 01 16:34:46
  TRACK 733 AUDIO
    TITLE "0:"
    INDEX 01 16:35:65
  TRACK 734 AUDIO
    TITLE "12:cjc171_06367"
    INDEX 01 16:36:28
  TRACK 735 AUDIO
    TITLE "0:"
    INDEX 01 16:38:72
  TRACK 736 AUDIO
    TITLE "13:cjc171_06368"
    INDEX 01 16:39:73
  TRACK 737 AUDIO
    TITLE "0:"
    INDEX 01 16:41:74
  TRACK 738 AUDIO
    TITLE "14:cjc171_06369"
    INDEX 01 16:42:32
  TRACK 739 AUDIO
    TITLE "0:"
    INDEX 01 16:44:41
  TRACK 740 AUDIO
    TITLE "15:cjc171_06370"
    INDEX 01 16:44:66
  TRACK 741 AUDIO
    TITLE "0:"
    INDEX 01 16:47:00
  TRACK 742 AUDIO
    TITLE "11:cjc171_06371"
    INDEX 01 16:48:01
  TRACK 743 AUDIO
    TITLE "0:"
    INDEX 01 16:49:22
  TRACK 744 AUDIO
    TITLE "12:cjc171_06372"
    INDEX 01 16:49:58
  TRACK 745 AUDIO
    TITLE "0:"
    INDEX 01 16:51:02
  TRACK 746 AUDIO
    TITLE "13:cjc171_06373"
    INDEX 01 16:52:01
  TRACK 747 AUDIO
    TITLE "0:"
    INDEX 01 16:54:51
  TRACK 748 AUDIO
    TITLE "14:cjc171_06374"
    INDEX 01 16:55:09
  TRACK 749 AUDIO
    TITLE "0:"
    INDEX 01 16:57:73
  TRACK 750 AUDIO
    TITLE "15:cjc171_06375"
    INDEX 01 16:58:19
  TRACK 751 AUDIO
    TITLE "0:"
    INDEX 01 17:01:06
  TRACK 752 AUDIO
    TITLE "11:cjc171_06376"
    INDEX 01 17:02:00
  TRACK 753 AUDIO
    TITLE "0:"
    INDEX 01 17:03:15
  TRACK 754 AUDIO
    TITLE "12:cjc171_06377"
    INDEX 01 17:03:50
  TRACK 755 AUDIO
    TITLE "0:"
    INDEX 01 17:05:04
  TRACK 756 AUDIO
    TITLE "13:cjc171_06378"
    INDEX 01 17:06:01
  TRACK 757 AUDIO
    TITLE "0:"
    INDEX 01 17:07:65
  TRACK 758 AUDIO
    TITLE "14:cjc171_06379"
    INDEX 01 17:08:26
  TRACK 759 AUDIO
    TITLE "0:"
    INDEX 01 17:10:34
  TRACK 760 AUDIO
    TITLE "15:cjc171_06380"
    INDEX 01 17:10:54
  TRACK 761 AUDIO
    TITLE "0:"
    INDEX 01 17:12:65
  TRACK 762 AUDIO
    TITLE "11:cjc171_06381"
    INDEX 01 17:13:60
  TRACK 763 AUDIO
    TITLE "0:"
    INDEX 01 17:14:69
  TRACK 764 AUDIO
    TITLE "12:cjc171_06382"
    INDEX 01 17:15:30
  TRACK 765 AUDIO
    TITLE "0:"
    INDEX 01 17:19:10
  TRACK 766 AUDIO
    TITLE "13:cjc171_06383"
    INDEX 01 17:20:09
  TRACK 767 AUDIO
    TITLE "0:"
    INDEX 01 17:21:70
  TRACK 768 AUDIO
    TITLE "14:cjc171_06384"
    INDEX 01 17:22:26
  TRACK 769 AUDIO
    TITLE "0:"
    INDEX 01 17:24:27
  TRACK 770 AUDIO
    TITLE "15:cjc171_06385"
    INDEX 01 17:24:50
  TRACK 771 AUDIO
    TITLE "0:"
    INDEX 01 17:26:49
  TRACK 772 AUDIO
    TITLE "11:cjc171_06386"
    INDEX 01 17:27:49
  TRACK 773 AUDIO
    TITLE "0:"
    INDEX 01 17:29:14
  TRACK 774 AUDIO
    TITLE "12:cjc171_06387"
    INDEX 01 17:29:49
  TRACK 775 AUDIO
    TITLE "0:"
    INDEX 01 17:31:62
  TRACK 776 AUDIO
    TITLE "13:cjc171_06388"
    INDEX 01 17:32:60
  TRACK 777 AUDIO
    TITLE "0:"
    INDEX 01 17:35:07
  TRACK 778 AUDIO
    TITLE "14:cjc171_06389"
    INDEX 01 17:35:42
  TRACK 779 AUDIO
    TITLE "0:"
    INDEX 01 17:38:25
  TRACK 780 AUDIO
    TITLE "15:cjc171_06390"
    INDEX 01 17:38:46
  TRACK 781 AUDIO
    TITLE "0:"
    INDEX 01 17:41:31
  TRACK 782 AUDIO
    TITLE "11:cjc171_06391"
    INDEX 01 17:42:31
  TRACK 783 AUDIO
    TITLE "0:"
    INDEX 01 17:43:34
  TRACK 784 AUDIO
    TITLE "12:cjc171_06392"
    INDEX 01 17:43:69
  TRACK 785 AUDIO
    TITLE "0:"
    INDEX 01 17:45:05
  TRACK 786 AUDIO
    TITLE "13:cjc171_06393"
    INDEX 01 17:46:05
  TRACK 787 AUDIO
    TITLE "0:"
    INDEX 01 17:48:49
  TRACK 788 AUDIO
    TITLE "14:cjc171_06394"
    INDEX 01 17:49:07
  TRACK 789 AUDIO
    TITLE "0:"
    INDEX 01 17:51:55
  TRACK 790 AUDIO
    TITLE "15:cjc171_06395"
    INDEX 01 17:52:05
  TRACK 791 AUDIO
    TITLE "0:"
    INDEX 01 17:54:51
  TRACK 792 AUDIO
    TITLE "11:cjc171_06396"
    INDEX 01 17:55:47
  TRACK 793 AUDIO
    TITLE "0:"
    INDEX 01 17:56:68
  TRACK 794 AUDIO
    TITLE "12:cjc171_06397"
    INDEX 01 17:57:24
  TRACK 795 AUDIO
    TITLE "0:"
    INDEX 01 17:58:69
  TRACK 796 AUDIO
    TITLE "13:cjc171_06398"
    INDEX 01 17:59:66
  TRACK 797 AUDIO
    TITLE "0:"
    INDEX 01 18:01:59
  TRACK 798 AUDIO
    TITLE "14:cjc171_06399"
    INDEX 01 18:02:19
  TRACK 799 AUDIO
    TITLE "0:"
    INDEX 01 18:04:13
  TRACK 800 AUDIO
    TITLE "15:cjc171_06400"
    INDEX 01 18:04:32
  TRACK 801 AUDIO
    TITLE "0:"
    INDEX 01 18:06:19
  TRACK 802 AUDIO
    TITLE "11:cjc171_06401"
    INDEX 01 18:07:21
  TRACK 803 AUDIO
    TITLE "0:"
    INDEX 01 18:08:40
  TRACK 804 AUDIO
    TITLE "12:cjc171_06402"
    INDEX 01 18:09:04
  TRACK 805 AUDIO
    TITLE "0:"
    INDEX 01 18:11:07
  TRACK 806 AUDIO
    TITLE "13:cjc171_06403"
    INDEX 01 18:12:04
  TRACK 807 AUDIO
    TITLE "0:"
    INDEX 01 18:13:39
  TRACK 808 AUDIO
    TITLE "14:cjc171_06404"
    INDEX 01 18:14:03
  TRACK 809 AUDIO
    TITLE "0:"
    INDEX 01 18:16:22
  TRACK 810 AUDIO
    TITLE "15:cjc171_06405"
    INDEX 01 18:16:57
  TRACK 811 AUDIO
    TITLE "0:"
    INDEX 01 18:19:00
  TRACK 812 AUDIO
    TITLE "11:cjc171_06406"
    INDEX 01 18:20:08
  TRACK 813 AUDIO
    TITLE "0:"
    INDEX 01 18:21:33
  TRACK 814 AUDIO
    TITLE "12:cjc171_06407"
    INDEX 01 18:21:70
  TRACK 815 AUDIO
    TITLE "0:"
    INDEX 01 18:24:60
  TRACK 816 AUDIO
    TITLE "13:cjc171_06408"
    INDEX 01 18:25:60
  TRACK 817 AUDIO
    TITLE "0:"
    INDEX 01 18:28:44
  TRACK 818 AUDIO
    TITLE "14:cjc171_06409"
    INDEX 01 18:29:10
  TRACK 819 AUDIO
    TITLE "0:"
    INDEX 01 18:31:47
  TRACK 820 AUDIO
    TITLE "15:cjc171_06410"
    INDEX 01 18:32:03
  TRACK 821 AUDIO
    TITLE "0:"
    INDEX 01 18:34:41
  TRACK 822 AUDIO
    TITLE "11:cjc171_06411"
    INDEX 01 18:35:46
  TRACK 823 AUDIO
    TITLE "0:"
    INDEX 01 18:36:71
  TRACK 824 AUDIO
    TITLE "12:cjc171_06412"
    INDEX 01 18:37:37
  TRACK 825 AUDIO
    TITLE "0:"
    INDEX 01 18:39:15
  TRACK 826 AUDIO
    TITLE "13:cjc171_06413"
    INDEX 01 18:40:12
  TRACK 827 AUDIO
    TITLE "0:"
    INDEX 01 18:42:50
  TRACK 828 AUDIO
    TITLE "14:cjc171_06414"
    INDEX 01 18:43:15
  TRACK 829 AUDIO
    TITLE "0:"
    INDEX 01 18:45:62
  TRACK 830 AUDIO
    TITLE "15:cjc171_06415"
    INDEX 01 18:46:17
  TRACK 831 AUDIO
    TITLE "0:"
    INDEX 01 18:48:65
  TRACK 832 AUDIO
    TITLE "11:cjc171_06416"
    INDEX 01 18:49:70
  TRACK 833 AUDIO
    TITLE "0:"
    INDEX 01 18:51:22
  TRACK 834 AUDIO
    TITLE "12:cjc171_06417"
    INDEX 01 18:51:63
  TRACK 835 AUDIO
    TITLE "0:"
    INDEX 01 18:52:68
  TRACK 836 AUDIO
    TITLE "13:cjc171_06418"
    INDEX 01 18:53:66
  TRACK 837 AUDIO
    TITLE "0:"
    INDEX 01 18:56:01
  TRACK 838 AUDIO
    TITLE "14:cjc171_06419"
    INDEX 01 18:56:39
  TRACK 839 AUDIO
    TITLE "0:"
    INDEX 01 18:58:67
  TRACK 840 AUDIO
    TITLE "15:cjc171_06420"
    INDEX 01 18:59:21
  TRACK 841 AUDIO
    TITLE "0:"
    INDEX 01 19:01:50
  TRACK 842 AUDIO
    TITLE "11:cjc171_06421"
    INDEX 01 19:02:55
  TRACK 843 AUDIO
    TITLE "0:"
    INDEX 01 19:04:01
  TRACK 844 AUDIO
    TITLE "12:cjc171_06422"
    INDEX 01 19:04:38
  TRACK 845 AUDIO
    TITLE "0:"
    INDEX 01 19:06:45
  TRACK 846 AUDIO
    TITLE "13:cjc171_06423"
    INDEX 01 19:07:42
  TRACK 847 AUDIO
    TITLE "0:"
    INDEX 01 19:09:02
  TRACK 848 AUDIO
    TITLE "14:cjc171_06424"
    INDEX 01 19:09:41
  TRACK 849 AUDIO
    TITLE "0:"
    INDEX 01 19:11:48
  TRACK 850 AUDIO
    TITLE "15:cjc171_06425"
    INDEX 01 19:12:01
  TRACK 851 AUDIO
    TITLE "0:"
    INDEX 01 19:14:03
  TRACK 852 AUDIO
    TITLE "11:cjc171_06426"
    INDEX 01 19:15:07
  TRACK 853 AUDIO
    TITLE "0:"
    INDEX 01 19:16:22
  TRACK 854 AUDIO
    TITLE "12:cjc171_06427"
    INDEX 01 19:16:59
  TRACK 855 AUDIO
    TITLE "0:"
    INDEX 01 19:19:12
  TRACK 856 AUDIO
    TITLE "13:cjc171_06428"
    INDEX 01 19:20:12
  TRACK 857 AUDIO
    TITLE "0:"
    INDEX 01 19:21:60
  TRACK 858 AUDIO
    TITLE "14:cjc171_06429"
    INDEX 01 19:22:20
  TRACK 859 AUDIO
    TITLE "0:"
    INDEX 01 19:24:04
  TRACK 860 AUDIO
    TITLE "15:cjc171_06430"
    INDEX 01 19:24:27
  TRACK 861 AUDIO
    TITLE "0:"
    INDEX 01 19:26:10
  TRACK 862 AUDIO
    TITLE "11:cjc171_06431"
    INDEX 01 19:27:16
  TRACK 863 AUDIO
    TITLE "0:"
    INDEX 01 19:28:17
  TRACK 864 AUDIO
    TITLE "12:cjc171_06432"
    INDEX 01 19:28:56
  TRACK 865 AUDIO
    TITLE "0:"
    INDEX 01 19:29:73
  TRACK 866 AUDIO
    TITLE "13:cjc171_06433"
    INDEX 01 19:30:71
  TRACK 867 AUDIO
    TITLE "0:"
    INDEX 01 19:32:40
  TRACK 868 AUDIO
    TITLE "14:cjc171_06434"
    INDEX 01 19:33:05
  TRACK 869 AUDIO
    TITLE "0:"
    INDEX 01 19:34:51
  TRACK 870 AUDIO
    TITLE "15:cjc171_06435"
    INDEX 01 19:35:05
  TRACK 871 AUDIO
    TITLE "0:"
    INDEX 01 19:36:52
  TRACK 872 AUDIO
    TITLE "11:cjc171_06436"
    INDEX 01 19:37:55
  TRACK 873 AUDIO
    TITLE "0:"
    INDEX 01 19:39:11
  TRACK 874 AUDIO
    TITLE "12:cjc171_06437"
    INDEX 01 19:39:50
  TRACK 875 AUDIO
    TITLE "0:"
    INDEX 01 19:41:14
  TRACK 876 AUDIO
    TITLE "13:cjc171_06438"
    INDEX 01 19:42:15
  TRACK 877 AUDIO
    TITLE "0:"
    INDEX 01 19:44:20
  TRACK 878 AUDIO
    TITLE "14:cjc171_06439"
    INDEX 01 19:44:63
  TRACK 879 AUDIO
    TITLE "0:"
    INDEX 01 19:46:56
  TRACK 880 AUDIO
    TITLE "15:cjc171_06440"
    INDEX 01 19:47:11
  TRACK 881 AUDIO
    TITLE "0:"
    INDEX 01 19:49:06
  TRACK 882 AUDIO
    TITLE "11:cjc171_06441"
    INDEX 01 19:50:13
  TRACK 883 AUDIO
    TITLE "0:"
    INDEX 01 19:51:20
  TRACK 884 AUDIO
    TITLE "12:cjc171_06442"
    INDEX 01 19:51:59
  TRACK 885 AUDIO
    TITLE "0:"
    INDEX 01 19:53:23
  TRACK 886 AUDIO
    TITLE "13:cjc171_06443"
    INDEX 01 19:54:22
  TRACK 887 AUDIO
    TITLE "0:"
    INDEX 01 19:56:66
  TRACK 888 AUDIO
    TITLE "14:cjc171_06444"
    INDEX 01 19:57:31
  TRACK 889 AUDIO
    TITLE "0:"
    INDEX 01 19:59:49
  TRACK 890 AUDIO
    TITLE "15:cjc171_06445"
    INDEX 01 20:00:05
  TRACK 891 AUDIO
    TITLE "0:"
    INDEX 01 20:02:24
  TRACK 892 AUDIO
    TITLE "11:cjc171_06446"
    INDEX 01 20:03:29
  TRACK 893 AUDIO
    TITLE "0:"
    INDEX 01 20:04:42
  TRACK 894 AUDIO
    TITLE "12:cjc171_06447"
    INDEX 01 20:05:09
  TRACK 895 AUDIO
    TITLE "0:"
    INDEX 01 20:07:27
  TRACK 896 AUDIO
    TITLE "13:cjc171_06448"
    INDEX 01 20:08:24
  TRACK 897 AUDIO
    TITLE "0:"
    INDEX 01 20:10:53
  TRACK 898 AUDIO
    TITLE "14:cjc171_06449"
    INDEX 01 20:11:17
  TRACK 899 AUDIO
    TITLE "0:"
    INDEX 01 20:13:47
  TRACK 900 AUDIO
    TITLE "15:cjc171_06450"
    INDEX 01 20:14:00
  TRACK 901 AUDIO
    TITLE "0:"
    INDEX 01 20:16:28
  TRACK 902 AUDIO
    TITLE "11:cjc171_06451"
    INDEX 01 20:17:27
  TRACK 903 AUDIO
    TITLE "0:"
    INDEX 01 20:18:42
  TRACK 904 AUDIO
    TITLE "12:cjc171_06452"
    INDEX 01 20:19:05
  TRACK 905 AUDIO
    TITLE "0:"
    INDEX 01 20:20:39
  TRACK 906 AUDIO
    TITLE "13:cjc171_06453"
    INDEX 01 20:21:35
  TRACK 907 AUDIO
    TITLE "0:"
    INDEX 01 20:23:73
  TRACK 908 AUDIO
    TITLE "14:cjc171_06454"
    INDEX 01 20:24:31
  TRACK 909 AUDIO
    TITLE "0:"
    INDEX 01 20:27:12
  TRACK 910 AUDIO
    TITLE "15:cjc171_06455"
    INDEX 01 20:27:30
  TRACK 911 AUDIO
    TITLE "0:"
    INDEX 01 20:30:10
  TRACK 912 AUDIO
    TITLE "11:cjc171_06456"
    INDEX 01 20:31:02
  TRACK 913 AUDIO
    TITLE "0:"
    INDEX 01 20:32:21
  TRACK 914 AUDIO
    TITLE "12:cjc171_06457"
    INDEX 01 20:32:56
  TRACK 915 AUDIO
    TITLE "0:"
    INDEX 01 20:34:10
  TRACK 916 AUDIO
    TITLE "13:cjc171_06458"
    INDEX 01 20:35:08
  TRACK 917 AUDIO
    TITLE "0:"
    INDEX 01 20:37:59
  TRACK 918 AUDIO
    TITLE "14:cjc171_06459"
    INDEX 01 20:38:18
  TRACK 919 AUDIO
    TITLE "0:"
    INDEX 01 20:40:70
  TRACK 920 AUDIO
    TITLE "15:cjc171_06460"
    INDEX 01 20:41:16
  TRACK 921 AUDIO
    TITLE "0:"
    INDEX 01 20:43:68
  TRACK 922 AUDIO
    TITLE "11:cjc171_06461"
    INDEX 01 20:44:67
  TRACK 923 AUDIO
    TITLE "0:"
    INDEX 01 20:46:09
  TRACK 924 AUDIO
    TITLE "12:cjc171_06462"
    INDEX 01 20:46:45
  TRACK 925 AUDIO
    TITLE "0:"
    INDEX 01 20:48:04
  TRACK 926 AUDIO
    TITLE "13:cjc171_06463"
    INDEX 01 20:49:04
  TRACK 927 AUDIO
    TITLE "0:"
    INDEX 01 20:51:28
  TRACK 928 AUDIO
    TITLE "14:cjc171_06464"
    INDEX 01 20:51:62
  TRACK 929 AUDIO
    TITLE "0:"
    INDEX 01 20:54:25
  TRACK 930 AUDIO
    TITLE "15:cjc171_06465"
    INDEX 01 20:54:48
  TRACK 931 AUDIO
    TITLE "0:"
    INDEX 01 20:57:09
  TRACK 932 AUDIO
    TITLE "11:cjc171_06466"
    INDEX 01 20:58:07
  TRACK 933 AUDIO
    TITLE "0:"
    INDEX 01 20:59:16
  TRACK 934 AUDIO
    TITLE "12:cjc171_06467"
    INDEX 01 20:59:51
  TRACK 935 AUDIO
    TITLE "0:"
    INDEX 01 21:00:62
  TRACK 936 AUDIO
    TITLE "13:cjc171_06468"
    INDEX 01 21:01:62
  TRACK 937 AUDIO
    TITLE "0:"
    INDEX 01 21:03:29
  TRACK 938 AUDIO
    TITLE "14:cjc171_06469"
    INDEX 01 21:03:59
  TRACK 939 AUDIO
    TITLE "0:"
    INDEX 01 21:05:48
  TRACK 940 AUDIO
    TITLE "15:cjc171_06470"
    INDEX 01 21:05:71
  TRACK 941 AUDIO
    TITLE "0:"
    INDEX 01 21:07:61
  TRACK 942 AUDIO
    TITLE "11:cjc171_06471"
    INDEX 01 21:08:60
  TRACK 943 AUDIO
    TITLE "0:"
    INDEX 01 21:09:73
  TRACK 944 AUDIO
    TITLE "12:cjc171_06472"
    INDEX 01 21:10:31
  TRACK 945 AUDIO
    TITLE "0:"
    INDEX 01 21:14:04
  TRACK 946 AUDIO
    TITLE "13:cjc171_06473"
    INDEX 01 21:15:03
  TRACK 947 AUDIO
    TITLE "0:"
    INDEX 01 21:16:54
  TRACK 948 AUDIO
    TITLE "14:cjc171_06474"
    INDEX 01 21:17:16
  TRACK 949 AUDIO
    TITLE "0:"
    INDEX 01 21:19:46
  TRACK 950 AUDIO
    TITLE "15:cjc171_06475"
    INDEX 01 21:19:72
  TRACK 951 AUDIO
    TITLE "0:"
    INDEX 01 21:22:29
  TRACK 952 AUDIO
    TITLE "11:cjc171_06476"
    INDEX 01 21:23:30
  TRACK 953 AUDIO
    TITLE "0:"
    INDEX 01 21:24:57
  TRACK 954 AUDIO
    TITLE "12:cjc171_06477"
    INDEX 01 21:25:13
  TRACK 955 AUDIO
    TITLE "0:"
    INDEX 01 21:27:42
  TRACK 956 AUDIO
    TITLE "13:cjc171_06478"
    INDEX 01 21:28:41
  TRACK 957 AUDIO
    TITLE "0:"
    INDEX 01 21:30:44
  TRACK 958 AUDIO
    TITLE "14:cjc171_06479"
    INDEX 01 21:31:10
  TRACK 959 AUDIO
    TITLE "0:"
    INDEX 01 21:33:05
  TRACK 960 AUDIO
    TITLE "15:cjc171_06480"
    INDEX 01 21:33:25
  TRACK 961 AUDIO
    TITLE "0:"
    INDEX 01 21:35:16
  TRACK 962 AUDIO
    TITLE "11:cjc171_06481"
    INDEX 01 21:36:17
  TRACK 963 AUDIO
    TITLE "0:"
    INDEX 01 21:37:34
  TRACK 964 AUDIO
    TITLE "12:cjc171_06482"
    INDEX 01 21:37:70
  TRACK 965 AUDIO
    TITLE "0:"
    INDEX 01 21:39:10
  TRACK 966 AUDIO
    TITLE "13:cjc171_06483"
    INDEX 01 21:40:09
  TRACK 967 AUDIO
    TITLE "0:"
    INDEX 01 21:41:61
  TRACK 968 AUDIO
    TITLE "14:cjc171_06484"
    INDEX 01 21:42:20
  TRACK 969 AUDIO
    TITLE "0:"
    INDEX 01 21:43:74
  TRACK 970 AUDIO
    TITLE "15:cjc171_06485"
    INDEX 01 21:44:21
  TRACK 971 AUDIO
    TITLE "0:"
    INDEX 01 21:45:73
  TRACK 972 AUDIO
    TITLE "11:cjc171_06486"
    INDEX 01 21:46:68
  TRACK 973 AUDIO
    TITLE "0:"
    INDEX 01 21:48:09
  TRACK 974 AUDIO
    TITLE "12:cjc171_06487"
    INDEX 01 21:48:44
  TRACK 975 AUDIO
    TITLE "0:"
    INDEX 01 21:52:02
  TRACK 976 AUDIO
    TITLE "13:cjc171_06488"
    INDEX 01 21:53:04
  TRACK 977 AUDIO
    TITLE "0:"
    INDEX 01 21:55:09
  TRACK 978 AUDIO
    TITLE "14:cjc171_06489"
    INDEX 01 21:55:42
  TRACK 979 AUDIO
    TITLE "0:"
    INDEX 01 21:57:35
  TRACK 980 AUDIO
    TITLE "15:cjc171_06490"
    INDEX 01 21:57:64
  TRACK 981 AUDIO
    TITLE "0:"
    INDEX 01 21:59:57
  TRACK 982 AUDIO
    TITLE "11:cjc171_06491"
    INDEX 01 22:00:63
  TRACK 983 AUDIO
    TITLE "0:"
    INDEX 01 22:01:74
  TRACK 984 AUDIO
    TITLE "12:cjc171_06492"
    INDEX 01 22:02:36
  TRACK 985 AUDIO
    TITLE "0:"
    INDEX 01 22:04:49
  TRACK 986 AUDIO
    TITLE "13:cjc171_06493"
    INDEX 01 22:05:46
  TRACK 987 AUDIO
    TITLE "0:"
    INDEX 01 22:07:65
  TRACK 988 AUDIO
    TITLE "14:cjc171_06494"
    INDEX 01 22:08:23
  TRACK 989 AUDIO
    TITLE "0:"
    INDEX 01 22:10:40
  TRACK 990 AUDIO
    TITLE "15:cjc171_06495"
    INDEX 01 22:10:59
  TRACK 991 AUDIO
    TITLE "0:"
    INDEX 01 22:13:03
  TRACK 992 AUDIO
    TITLE "11:cjc171_06496"
    INDEX 01 22:13:71
  TRACK 993 AUDIO
    TITLE "0:"
    INDEX 01 22:15:31
  TRACK 994 AUDIO
    TITLE "12:cjc171_06497"
    INDEX 01 22:15:68
  TRACK 995 AUDIO
    TITLE "0:"
    INDEX 01 22:18:39
  TRACK 996 AUDIO
    TITLE "13:cjc171_06498"
    INDEX 01 22:19:39
  TRACK 997 AUDIO
    TITLE "0:"
    INDEX 01 22:21:34
  TRACK 998 AUDIO
    TITLE "14:cjc171_06499"
    INDEX 01 22:22:00
  TRACK 999 AUDIO
    TITLE "0:"
    INDEX 01 22:24:26
  TRACK 1000 AUDIO
    TITLE "15:cjc171_06500"
    INDEX 01 22:24:49
  TRACK 1001 AUDIO
    TITLE "0:"
    INDEX 01 22:27:05
